<svg width="235" height="48" viewBox="0 0 235 48" fill="none" xmlns="http://www.w3.org/2000/svg">
<path d="M63.5656 35.9714V14.9392H55.3312V11.9542H75.1968V14.9392H66.9624V35.9714H63.5656Z" fill="#1D1D1D"/>
<path d="M0 35.9714V11.9542H10.1215C12.6834 11.9542 14.9364 12.4574 16.8806 13.4638C18.8478 14.4703 20.3689 15.877 21.4439 17.684C22.5418 19.491 23.0908 21.5839 23.0908 23.9628C23.0908 26.3416 22.5418 28.4345 21.4439 30.2415C20.3689 32.0486 18.8478 33.4553 16.8806 34.4617C14.9364 35.4681 12.6834 35.9714 10.1215 35.9714H0ZM3.43103 32.9864H9.91567C11.9057 32.9864 13.6212 32.609 15.0622 31.8541C16.5261 31.0993 17.6583 30.0471 18.4589 28.6976C19.2595 27.3252 19.6598 25.7469 19.6598 23.9628C19.6598 22.1558 19.2595 20.5775 18.4589 19.228C17.6583 17.8784 16.5261 16.8262 15.0622 16.0714C13.6212 15.3166 11.9057 14.9392 9.91567 14.9392H3.43103V32.9864Z" fill="#1D1D1D"/>
<path d="M218.047 35.9714V11.9542H221.478V32.9864H234.482V35.9714H218.047Z" fill="#1D1D1D"/>
<path d="M194.244 35.9714V11.9542H197.675V32.9864H210.679V35.9714H194.244Z" fill="#1D1D1D"/>
<path d="M113.992 12L134.985 0L155.977 12V36L134.985 48L113.992 36V12Z" fill="#B8CE10"/>
<path d="M149.48 16.5L151.479 13.5L134.985 4.5L117.99 14V34L134.985 43.5L151.479 34.5L149.48 31.5L134.985 40L121.489 32V16L134.985 8L149.48 16.5Z" fill="#1D1D1D"/>
<path fill-rule="evenodd" clip-rule="evenodd" d="M38.6816 11.9542L27.8053 35.9714H31.3392L33.9778 29.9671H46.7479L49.3864 35.9714H52.989L42.0783 11.9542H38.6816ZM45.5417 27.2222L40.3628 15.4371L41.049 13.8755H39.6766L40.3628 15.4371L35.1839 27.2222H45.5417Z" fill="#1D1D1D"/>
<path fill-rule="evenodd" clip-rule="evenodd" d="M77.5216 35.9714L88.398 11.9542H91.7947L102.705 35.9714H99.1028L96.4642 29.9671H97.5931L96.5981 27.2222H95.2581L90.0792 15.4371L84.9003 27.2222H83.0799L82.1535 29.9671H83.6941L81.0556 35.9714H77.5216ZM83.6941 29.9671L84.9003 27.2222H95.2581L96.4642 29.9671H83.6941Z" fill="#1D1D1D"/>
<path d="M83.0799 27.2222L82.1535 29.9671H83.6941L84.9003 27.2222H83.0799Z" fill="#1D1D1D"/>
<path d="M97.5931 29.9671L96.5981 27.2222H95.2581L96.4642 29.9671H97.5931Z" fill="#1D1D1D"/>
<path d="M41.049 13.8755H39.6766L40.3628 15.4371L41.049 13.8755Z" fill="#1D1D1D"/>
<path fill-rule="evenodd" clip-rule="evenodd" d="M183.302 22.3159H171.259V14.9392H184.777V11.9542H167.828V35.9714H185.258V32.9864H171.259V25.2322H183.302V22.3159ZM171.259 25.2322V22.3159H170.95V25.2322H171.259Z" fill="#1D1D1D"/>
<path d="M170.95 22.3159V25.2322H171.259V22.3159H170.95Z" fill="#1D1D1D"/>
</svg>
